<?xml version="1.0" encoding="utf-8"?>
<!-- Generator: Adobe Illustrator 21.0.0, SVG Export Plug-In . SVG Version: 6.00 Build 0)  -->
<svg version="1.1" id="Capa_1" xmlns="http://www.w3.org/2000/svg" xmlns:xlink="http://www.w3.org/1999/xlink" x="0px" y="0px"
	 viewBox="0 0 1000 1000" style="enable-background:new 0 0 1000 1000;" xml:space="preserve">
<style type="text/css">
	.st0{fill:#5E6875;}
	.st1{fill:#E2E2E2;}
	.st2{fill:#FFFFFF;}
	.st3{fill:#FF0000;}
	.st4{fill:#28ADAE;}
	.st5{fill:#8B8B8B;}
	.st6{fill:#565656;}
	.st7{fill:#444444;}
	.st8{fill:#E8E8E8;}
	.st9{fill:#474747;}
	.st10{fill:#595959;}
</style>
<rect x="239.5" y="0" class="st0" width="29.9" height="27.8"/>
<rect x="58.9" y="7.1" class="st1" width="40" height="14.4"/>
<path class="st2" d="M404.5,18.9c4,0,7.3-4,7.3-8.9s-3.3-8.9-7.3-8.9s-7.3,4-7.3,8.9S400.5,18.9,404.5,18.9z M404.5,2.6
	c3.2,0,5.8,3.3,5.8,7.4s-2.6,7.4-5.8,7.4s-5.8-3.3-5.8-7.4S401.3,2.6,404.5,2.6z"/>
<path class="st2" d="M409.8,17.4v1.5c4.4,0,6.8,4.6,6.8,6.5c0,1-0.7,1.1-1,1.1h-22.3c-0.9,0-1.1-0.1-1.1-1.1c0-2.6,3-6.5,7.2-6.5
	v-1.5c-4.8,0-8.7,4.4-8.7,8c-0.2,1.3,0.7,2.5,2,2.6c0.2,0,0.4,0,0.7,0h22.4c1.4,0,2.5-1.1,2.5-2.5c0-0.1,0-0.1,0-0.2
	C418.1,22.6,415,17.4,409.8,17.4z"/>
<path class="st2" d="M357.1,18.9c4,0,7.3-4,7.3-8.9s-3.3-8.9-7.3-8.9s-7.4,4-7.4,8.9S353.1,18.9,357.1,18.9z M357.1,2.6
	c3.2,0,5.8,3.3,5.8,7.4s-2.6,7.4-5.8,7.4s-5.8-3.3-5.8-7.4S353.9,2.6,357.1,2.6z"/>
<path class="st2" d="M369.4,14c2.7,0,5-2.7,5-6s-2.2-6-5-6s-5,2.7-5,6S366.6,14,369.4,14z M369.4,3.6c1.9,0,3.5,2,3.5,4.4
	s-1.5,4.4-3.5,4.4s-3.5-2-3.5-4.4S367.5,3.5,369.4,3.6L369.4,3.6z"/>
<path class="st2" d="M377.6,13.4c-4,0-7.3,3.3-7.3,7.3s3.3,7.3,7.3,7.3s7.3-3.3,7.3-7.3l0,0C384.9,16.7,381.6,13.4,377.6,13.4z
	 M377.6,26.5c-3.2,0-5.8-2.6-5.8-5.8s2.6-5.8,5.8-5.8s5.8,2.6,5.8,5.8l0,0C383.4,23.9,380.8,26.4,377.6,26.5L377.6,26.5z"/>
<polygon class="st2" points="378.3,17.7 376.8,17.7 376.8,19.9 374.6,19.9 374.6,21.4 376.8,21.4 376.8,23.6 378.3,23.6 378.3,21.4 
	380.6,21.4 380.6,19.9 378.3,19.9 "/>
<path class="st2" d="M362.4,17.4v1.5c4.4,0,6.8,4.6,6.8,6.5c0,1-0.7,1.1-1,1.1h-22.3c-0.9,0-1.1-0.1-1.1-1.1c0-2.6,3-6.5,7.2-6.5
	v-1.5c-4.8,0-8.7,4.4-8.7,8c-0.2,1.3,0.7,2.5,2,2.6c0.2,0,0.4,0,0.7,0h22.4c1.4,0,2.5-1.1,2.5-2.5c0-0.1,0-0.1,0-0.2
	C370.7,22.6,367.5,17.4,362.4,17.4z"/>
<path class="st2" d="M337,5.5c-0.3-0.4-0.7-0.6-1.1-0.6H317v1.5h18.7l-1,3h-16.2v1.5h15.7l-0.9,2.7h-13.8V15h13.2l-0.8,2.4h-14.1
	L314,3.1c-0.1-0.5-0.5-0.9-1-1l-5.8-1.4l-0.4,1.5l5.7,1.4l3.9,14.3c0.1,0.2,0.1,0.3,0.3,0.5c-0.9,0.7-1.3,1.8-1.2,2.9
	c0.2,0.9,0.9,1.5,1.8,1.6c-1.2,1.3-1,3.3,0.2,4.4c1.3,1.2,3.3,1,4.4-0.2s1.1-3,0-4.2h5.3c-1.2,1.3-1,3.3,0.3,4.4
	c1.3,1.2,3.3,1,4.4-0.3c1.1-1.2,1.1-3,0-4.2h1.1v-1.5h-15.4c-0.5,0-0.6-0.3-0.6-0.4c-0.1-0.5,0.4-1.5,1.7-2.1h13.4
	c0.6,0,1.1-0.4,1.3-0.9l3.9-11.2C337.3,6.3,337.2,5.8,337,5.5z M329.5,26.5c-0.9,0-1.6-0.7-1.6-1.6s0.7-1.6,1.6-1.6s1.6,0.7,1.6,1.6
	C331.2,25.7,330.4,26.5,329.5,26.5L329.5,26.5L329.5,26.5z M319.5,26.5c-0.9,0-1.6-0.7-1.6-1.6s0.7-1.6,1.6-1.6s1.6,0.7,1.6,1.6
	C321.2,25.7,320.4,26.5,319.5,26.5L319.5,26.5L319.5,26.5z"/>
<path class="st2" d="M492.1,15.3h3.9v11.9h4.7V15.4h3.7l0.6-4.7h-4.3V7.4c0-0.6,0.1-1.1,0.4-1.6c0.5-0.5,1.2-0.7,1.9-0.7h2.4V0.9
	c-1.2-0.2-2.3-0.2-3.5-0.2c-1.6-0.1-3.1,0.5-4.3,1.6c-1.1,1.2-1.7,2.9-1.6,4.5v3.7h-3.9"/>
<path class="st2" d="M262,19.9c0.3,0.5,0.2,1.1-0.2,1.4l0,0c-0.2,0.3-0.5,0.3-0.7,0.3s-0.4-0.1-0.6-0.2c-1.1-0.9-3.3-3.5-3.5-3.4
	c-3,2-7,1.1-9-1.9s-1.1-7,1.8-9c1.1-0.7,2.4-1.1,3.5-1.1c2.1,0,4.2,1.1,5.5,3c1.4,2.2,1.4,5.1-0.1,7.3
	C258.5,16.6,261.5,19.4,262,19.9z"/>
<path class="st0" d="M253.4,8c-2.5-0.1-4.5,1.9-4.6,4.4c0,0.1,0,0.1,0,0.2c0,2.9,1.7,4.6,4.6,4.6c2.9,0,4.6-1.9,4.6-4.7
	C257.9,10,255.9,8,253.4,8L253.4,8z"/>
<path class="st2" d="M293.8,26.2c-7-1.5-16.7-10-18.1-18.2c-0.1-1.2,0.2-2.5,1-3.5c0.7-0.9,1.6-1.8,2.5-2.6c0.9-0.9,2.4-0.9,3.3,0
	l3.1,3.2l0,0c0.9,0.9,0.9,2.4,0,3.3l-1.3,1.3c-0.2,0.2-0.2,0.5,0.2,1.4c0.9,2,4.1,5.3,6.4,6.4c0.9,0.5,1.2,0.2,1.3,0.1l1.3-1.3
	c0.4-0.4,1-0.7,1.6-0.7s1.2,0.3,1.6,0.7l3.3,3.3c0.9,0.9,0.9,2.4,0,3.3l-2.1,2.1c-0.8,0.9-1.9,1.4-3.1,1.5
	C294.5,26.5,294.2,26.5,293.8,26.2z M295.2,17.2c-0.2,0-0.4,0.1-0.5,0l-1.3,1.3c-0.8,0.8-1.8,0.8-3.1,0.2c-2.4-1.2-6-4.5-7.1-7.1
	c-0.3-0.7-0.8-2,0.2-3l1.3-1.3l0,0c0.3-0.3,0.3-0.8,0-1.1l-3.2-3.1l0,0c-0.4-0.3-0.9-0.3-1.2,0c-0.8,0.7-1.6,1.5-2.3,2.4
	c-0.5,0.7-0.7,1.5-0.7,2.4c1.3,7.5,10.5,15.6,17,17c0.7,0.1,1.5,0.2,2.7-1l2.1-2.1c0.3-0.3,0.3-0.8,0-1.1l-3.3-3.3
	C295.6,17.3,295.4,17.2,295.2,17.2L295.2,17.2z"/>
<path class="st2" d="M443.9,17.4l-1.5,1.5c-0.7,0.7-1.3,0.7-2.5,0c-2.5-1.5-6.4-5-7.5-7.5c-0.7-1.6-0.7-1.8,0-2.5l1.5-1.5
	c0.7-0.7,0.7-1.8,0-2.5l-3.5-3.5c-0.7-0.7-1.8-0.7-2.5,0c-1,0.8-1.9,1.8-2.7,2.8c-0.7,0.9-1.1,2.1-1,3.3c1.5,8.5,11.7,18,19.7,19.7
	c1.1,0.3,2.2,0.2,3.8-1.3l2.4-2.4c0.7-0.7,0.7-1.8,0-2.5l-3.7-3.7C445.7,16.6,444.6,16.7,443.9,17.4z"/>
<polygon class="st2" points="460.6,16.5 460.6,27.1 468.8,27.1 468.8,20.5 473.8,20.5 473.8,27.1 481.5,27.1 481.5,17 471.6,6.8 "/>
<polygon class="st2" points="482.9,12.4 482.9,5.9 479.9,5.9 479.9,9.3 471.7,0.7 456.4,14.6 458.4,16.8 471.6,4.9 483.1,17.1 
	485.3,15 "/>
<path class="st3" d="M6,7.2l-1.1,4.1l-0.2,0.8c0,0.2-0.1,0.4-0.3,0.6c-0.2,0.1-0.4,0.2-0.6,0.1c-0.5,0-0.9-0.1-1.4-0.2
	c-0.5-0.1-0.7-0.4-0.7-0.7c0.1-0.6,0.2-1.2,0.4-1.8c0.3-1.1,0.6-2.4,1-3.9l0.6-2.3L3.1,4.2L2.8,4.3c-0.1,0-0.2,0-0.3,0
	c-0.2,0-0.3-0.2-0.3-0.5c0-0.5,0.1-1,0.3-1.5C2.6,1.8,2.8,1.4,3.2,1c0.4-0.3,1-0.5,1.5-0.6c0.7-0.1,1.4-0.2,2-0.2
	C7.9,0.1,9,0.5,10,1.2c0.8,0.7,1.3,1.8,1.2,2.9c0,0.8-0.2,1.7-0.7,2.4C10.1,7.2,9.6,7.8,9,8.3C8.6,8.6,8.1,8.8,7.6,9.1
	C7.3,9.2,6.9,9.3,6.5,9.3C6.3,9.3,6.1,9.2,6.1,9C6,8.8,6,8.6,6,8.4c0-0.2,0-0.5,0-0.7V7.2z M4.9,3.5l0.3,0.1l0.7,0.2
	C6,3.9,6.2,3.9,6.4,4.1c0.2,0.1,0.3,0.2,0.3,0.4c0,0.1,0,0.2,0,0.3c0,0.1-0.1,0.3-0.2,0.6L6.4,5.9L6.3,6.2c0.5-0.1,0.9-0.3,1.2-0.7
	C7.8,5.2,8,4.8,8,4.3c0-0.4-0.2-0.7-0.5-0.8C7.2,3.3,6.8,3.3,6.4,3.3C5.9,3.3,5.4,3.4,4.9,3.5z"/>
<path class="st3" d="M17.9,8.4L20,12c0.1,0.1,0.1,0.3,0.1,0.5c0,0.3-0.3,0.6-0.9,1C18.9,13.8,18.5,14,18,14c-0.2,0-0.4-0.2-0.7-0.6
	c-0.2-0.4-0.4-0.7-0.4-0.8l-1.8-3.4L14.3,12c0,0.2-0.1,0.4-0.2,0.5c-0.1,0.1-0.3,0.2-0.6,0.2c-0.5,0-1-0.1-1.5-0.2
	c-0.5-0.1-0.8-0.4-0.8-0.7c0.1-0.7,0.3-1.5,0.5-2.2c0.3-1.3,0.6-2.3,0.8-3l0.9-3.1c-0.2,0.1-0.4,0.2-0.6,0.2c-0.2,0-0.4,0.1-0.5,0.1
	s-0.2,0-0.3-0.1c0-0.1,0-0.2,0-0.3c0.1-0.4,0.2-0.9,0.3-1.3c0.1-0.3,0.2-0.7,0.4-1c0.1-0.1,0.2-0.2,0.4-0.2l0.7-0.2
	c0.3-0.1,0.8-0.2,1.4-0.2c0.6-0.1,1.2-0.1,1.7-0.2c1.1,0,2.1,0.3,3,1C20.7,1.9,21.2,3,21.1,4c0,0.9-0.3,1.9-0.8,2.6
	C19.6,7.3,18.8,8,17.9,8.4z M14.4,3.4h0.2l0.5,0.1c0.3,0,0.6,0.1,0.9,0.3c0.2,0.1,0.3,0.3,0.3,0.6s-0.1,0.7-0.2,1l-0.2,0.7l-0.1,0.1
	c0.5,0,1-0.2,1.5-0.5C17.7,5.4,18,4.9,18,4.4c0-0.4-0.2-0.8-0.5-1s-0.7-0.3-1.1-0.3c-0.3,0-0.6,0-1,0.1C15.2,3.2,14.8,3.3,14.4,3.4z
	"/>
<path class="st3" d="M23.1,12.6c-0.5,0-1-0.1-1.4-0.3c-0.5-0.2-0.7-0.5-0.7-0.8c0-0.5,0.1-1,0.3-1.5c0.2-0.8,0.4-1.5,0.6-2.2
	s0.5-1.6,0.8-2.7l0.8-2.4L23.8,1c0.1-0.2,0.2-0.5,0.4-0.6c0.2-0.1,0.4-0.2,0.7-0.1c0.3,0,0.7,0,1,0.1c0.3,0,0.6,0.1,0.9,0.3
	C27,0.8,27.2,1,27.1,1.3c0,0.2-0.1,0.4-0.1,0.6c-0.1,0.3-0.2,0.5-0.2,0.7l-1.6,6l-0.8,3.3c-0.1,0.4-0.2,0.6-0.3,0.7
	C23.6,12.6,23.4,12.6,23.1,12.6z"/>
<path class="st3" d="M36.6,6l-2.9,5.5c-0.1,0.3-0.3,0.6-0.5,0.8c-0.3,0.2-0.6,0.4-1,0.3c-0.5,0-1-0.1-1.4-0.4
	c-0.2-0.1-0.4-0.4-0.4-0.7l0.1-3.1c0-0.6,0.1-1.1,0.1-1.4s0-0.7,0.1-1.1L29.3,11l-0.2,0.5c-0.1,0.3-0.2,0.5-0.3,0.7
	c-0.1,0.2-0.3,0.3-0.6,0.3c-0.4,0-0.9-0.1-1.3-0.2c-0.5-0.1-0.7-0.3-0.7-0.6c0.1-0.9,0.3-1.8,0.6-2.7c0.4-1.3,0.7-2.3,1-2.9l1.7-4.8
	c0.1-0.3,0.2-0.6,0.4-0.8c0.2-0.2,0.4-0.3,0.7-0.3c0.4,0,0.9,0.1,1.3,0.2c0.3,0,0.7,0.1,1,0.3C32.9,0.9,33,1,33,1.1
	c0,0.2,0.1,0.3,0.1,0.5s0,0.6,0.1,1.1c0,0.5,0,0.9,0,1.3v1c0,0.7,0,1.2,0,1.5s0,0.7-0.1,1.3l0.1-0.4L34.3,5c0.4-0.8,0.8-1.6,1.1-2.2
	l1-1.7c0.3-0.5,0.7-0.8,1.1-0.8c0.5,0,1,0.1,1.5,0.3s0.8,0.5,0.8,0.9c0,0.2,0,0.4,0,0.6s0,0.3,0,0.5l-1,9.1c0.1,0.4-0.1,0.7-0.3,1
	c-0.3,0.2-0.7,0.3-1,0.3c-0.4,0-0.8-0.1-1.2-0.2c-0.4-0.1-0.6-0.3-0.6-0.6v-0.4c0.2-1,0.3-2,0.5-3S36.5,6.6,36.6,6z"/>
<path class="st3" d="M44.3,3.4l0.4,0.2l0.6,0.3c0.1,0.1,0.2,0.2,0.2,0.3c0,0.1,0,0.3-0.1,0.4c0,0.1-0.1,0.3-0.2,0.6h0.2h1.5
	c0.4,0,0.9,0.1,1.3,0.2c0.3,0.1,0.4,0.2,0.4,0.4c0,0.3-0.1,0.7-0.2,1c-0.1,0.3-0.2,0.6-0.3,0.9c-0.1,0.2-0.2,0.4-0.3,0.5
	s-0.2,0.1-0.3,0.1H47l-2.5-0.1l-0.4,1.6h1.3h1.4c0.1,0,0.3,0,0.4,0.1c0.1,0,0.2,0.1,0.3,0.2c0,0.1,0.1,0.3,0.1,0.4
	c0,0.3-0.1,0.7-0.2,1c-0.1,0.3-0.2,0.6-0.4,0.9c-0.1,0.2-0.4,0.3-0.6,0.3h-0.9h-1h-1.1c-0.3,0-0.6,0-1-0.1c-0.3,0-0.5-0.1-0.7-0.3
	s-0.3-0.4-0.5-0.6c-0.1-0.2-0.2-0.4-0.3-0.6c-0.1-0.1-0.1-0.3-0.1-0.5v-0.3l0.5-2.2C41.2,8.1,41,8,40.9,8c-0.1-0.1-0.2-0.2-0.1-0.4
	c0-0.4,0.1-0.7,0.1-1.1c0.1-0.3,0.2-0.7,0.4-1s0.5-0.4,0.8-0.4h0.2l0.5-1.9h-0.5c-0.1,0-0.2,0-0.3-0.1s-0.1-0.2-0.1-0.3
	c0-0.4,0.1-0.8,0.3-1.3c0.1-0.4,0.2-0.7,0.4-1.1c0.1-0.1,0.2-0.2,0.3-0.2L43,0.3h1.8l3.1,0.1h1c0.3,0,0.5,0,0.8,0.1
	C49.9,0.6,50,0.7,50,1s-0.1,0.7-0.2,1c-0.1,0.3-0.2,0.7-0.3,1c-0.1,0.2-0.2,0.4-0.4,0.5s-0.3,0.1-0.5,0.1H48l-2-0.1h-1.1L44.3,3.4z"
	/>
<path class="st4" d="M4.9,21.3H4.2L3.6,20h-2l-0.5,1.3H0.5L2.3,17H3L4.9,21.3z M3.5,19.6l-0.8-2l-0.8,2H3.5z"/>
<path class="st4" d="M7.5,21.4c-0.4,0-0.9-0.1-1.2-0.3c-0.2-0.2-0.4-0.4-0.5-0.7c-0.1-0.3-0.1-0.6-0.1-0.9V17h0.6v2.5
	c-0.1,0.4,0.1,0.8,0.3,1.1c0.3,0.2,0.6,0.3,0.9,0.3s0.7-0.1,0.9-0.3c0.3-0.3,0.4-0.7,0.3-1.1V17h0.6v2.5c0,0.4,0,0.8-0.2,1.1
	C9,20.8,8.8,21,8.5,21.1C8.2,21.3,7.9,21.4,7.5,21.4z"/>
<path class="st4" d="M14.2,17.5h-1.6v3.8H12v-3.8h-1.6V17h3.7v0.5H14.2z"/>
<path class="st4" d="M17.1,17c0.6,0,1.2,0.2,1.6,0.6c0.8,0.9,0.8,2.3,0,3.2c-0.4,0.4-1,0.6-1.6,0.6s-1.2-0.2-1.6-0.6
	c-0.8-0.9-0.8-2.3,0-3.2C15.9,17.2,16.5,17,17.1,17z M17.1,20.9c0.4,0,0.9-0.2,1.2-0.5c0.3-0.3,0.5-0.8,0.5-1.3s-0.1-0.9-0.5-1.3
	c-0.3-0.3-0.7-0.5-1.1-0.5s-0.9,0.1-1.2,0.5c-0.3,0.3-0.5,0.8-0.5,1.3s0.1,0.9,0.5,1.3C16.2,20.7,16.6,20.9,17.1,20.9L17.1,20.9z"/>
<path class="st4" d="M22.4,17h1.8c0.3,0,0.6,0,1,0.1c0.3,0.1,0.5,0.2,0.6,0.4C26,17.7,26,18,26,18.2c0,0.4-0.2,0.7-0.5,1
	c-0.4,0.2-0.9,0.4-1.3,0.3H23v1.7h-0.6V17z M23,19h1.2c0.3,0,0.6,0,0.9-0.2c0.2-0.1,0.3-0.4,0.3-0.6s0-0.3-0.1-0.5
	c-0.1-0.1-0.2-0.2-0.4-0.3c-0.2,0-0.4-0.1-0.6,0H23V19z"/>
<path class="st4" d="M30.7,21.3H30L29.5,20h-2L27,21.3h-0.7l1.8-4.3h0.7L30.7,21.3z M29.3,19.6l-0.8-2l-0.8,2H29.3z"/>
<path class="st4" d="M35.6,21.3h-0.7l-0.4-1.1c-0.1-0.2-0.2-0.4-0.4-0.5s-0.4-0.2-0.6-0.2h-1.2v1.8h-0.6V17h2.1c0.3,0,0.6,0,0.9,0.1
	c0.2,0.1,0.4,0.2,0.6,0.4c0.1,0.2,0.2,0.4,0.2,0.7c0,0.3-0.1,0.5-0.3,0.7s-0.5,0.3-0.8,0.4l0,0c0.4,0.1,0.6,0.4,0.8,0.8L35.6,21.3z
	 M32.3,19h1.4c0.3,0,0.6,0,0.8-0.2c0.2-0.1,0.3-0.4,0.3-0.6c0-0.5-0.3-0.7-1-0.7h-1.5V19z"/>
<path class="st4" d="M40.1,17.5h-1.6v3.8h-0.6v-3.8h-1.5V17h3.7C40.1,17,40.1,17.5,40.1,17.5z"/>
<path class="st4" d="M42.9,21.4c-0.5,0-1.1-0.1-1.5-0.4c-0.3-0.3-0.5-0.6-0.5-1h0.6c0,0.3,0.2,0.6,0.4,0.7c0.3,0.2,0.6,0.2,1,0.2
	c0.3,0,0.6-0.1,0.8-0.2s0.3-0.3,0.3-0.5s-0.1-0.4-0.3-0.5c-0.4-0.2-0.8-0.3-1.1-0.3c-0.4,0-0.8-0.2-1.2-0.4
	c-0.2-0.2-0.4-0.4-0.4-0.7c0-0.3,0.2-0.7,0.5-0.8c0.4-0.2,0.8-0.4,1.2-0.3c0.5,0,0.9,0.1,1.3,0.3c0.3,0.2,0.5,0.6,0.5,1h-0.6
	c-0.1-0.5-0.5-0.8-1.2-0.8c-0.3,0-0.6,0-0.8,0.2c-0.2,0.1-0.3,0.3-0.3,0.5s0.1,0.3,0.2,0.4c0.3,0.1,0.6,0.2,0.9,0.3
	c0.3,0.1,0.6,0.1,1,0.3c0.2,0.1,0.5,0.2,0.6,0.4c0.2,0.2,0.3,0.4,0.3,0.7c0,0.4-0.2,0.7-0.5,0.9C43.8,21.3,43.3,21.4,42.9,21.4z"/>
<path class="st4" d="M2.8,27.3c-0.5,0-1.1-0.1-1.5-0.4c-0.3-0.2-0.5-0.6-0.5-1h0.6c0,0.3,0.2,0.6,0.4,0.7c0.3,0.2,0.6,0.2,1,0.2
	c0.3,0,0.6-0.1,0.8-0.2c0.2-0.1,0.3-0.3,0.3-0.5s-0.1-0.4-0.3-0.5c-0.4-0.2-0.8-0.3-1.1-0.3c-0.4-0.1-0.8-0.2-1.2-0.4
	c-0.2-0.2-0.4-0.4-0.4-0.7c0-0.4,0.2-0.7,0.5-0.9c0.4-0.2,0.8-0.4,1.2-0.3c0.5,0,0.9,0.1,1.3,0.3c0.3,0.2,0.5,0.6,0.5,1H3.8
	c-0.1-0.5-0.5-0.8-1.2-0.8c-0.3,0-0.6,0-0.8,0.2c-0.2,0.1-0.3,0.3-0.3,0.5s0.1,0.3,0.2,0.4c0.3,0.1,0.6,0.2,0.9,0.3
	c0.3,0.1,0.6,0.1,1,0.3c0.2,0.1,0.5,0.2,0.6,0.4c0.2,0.2,0.3,0.4,0.3,0.7c0,0.4-0.2,0.7-0.5,0.9C3.7,27.2,3.2,27.3,2.8,27.3z"/>
<path class="st4" d="M9.7,27.2H8.9l-0.5-1.3h-2l-0.5,1.3H5.2L7.1,23h0.7L9.7,27.2z M8.2,25.5l-0.8-2l-0.8,2H8.2z"/>
<path class="st4" d="M13.5,27.2h-2.9V23h0.6v3.8h2.3L13.5,27.2z"/>
<path class="st4" d="M18,23l-1.8,4.3h-0.6l-2-4.3h0.7l1.5,3.7l1.5-3.7H18z"/>
<path class="st4" d="M22.5,27.2h-0.7l-0.6-1.3h-2l-0.5,1.3H18l1.8-4.3h0.7L22.5,27.2z M21,25.5l-0.8-2l-0.8,2H21z"/>
<path class="st4" d="M25.3,27.3c-0.6,0-1.2-0.2-1.7-0.6c-0.8-0.9-0.8-2.3,0-3.2c0.4-0.4,1-0.6,1.6-0.6c0.5,0,1,0.1,1.4,0.4
	c0.3,0.2,0.6,0.6,0.6,1h-0.6c0-0.3-0.2-0.5-0.4-0.6c-0.3-0.2-0.6-0.2-1-0.2S24.3,23.6,24,24c-0.6,0.7-0.6,1.8,0,2.5
	c0.3,0.3,0.7,0.5,1.2,0.5c0.6,0,1.1-0.2,1.5-0.6v-0.6h-1.3V25h1.9v2.2h-0.5l-0.2-0.4C26.4,27.2,25.8,27.4,25.3,27.3z"/>
<path class="st4" d="M32.3,27.2h-3.5V23h3.4v0.5h-2.8v1.3H32v0.5h-2.6v1.4h2.9V27.2z"/>
<path class="st4" d="M34.3,27.2c0,0.2,0,0.4-0.2,0.6C34,28,33.8,28,33.6,28v-0.3c0.2,0,0.3-0.2,0.3-0.6h-0.3v-0.6h0.7V27.2z"/>
<path class="st4" d="M38.3,27.2h-0.6V23h0.6V27.2z"/>
<path class="st4" d="M43.6,27.2H43l-2.5-3.4v3.4h-0.6V23h0.6l2.5,3.4V23h0.6V27.2z"/>
<path class="st4" d="M47,27.3c-1.2,0-2.2-1-2.2-2.2s1-2.2,2.2-2.2c0.5,0,0.9,0.1,1.3,0.4c0.3,0.2,0.6,0.6,0.6,1h-0.6
	c0-0.3-0.2-0.5-0.4-0.6c-0.3-0.2-0.6-0.3-0.9-0.2c-0.4,0-0.8,0.1-1.1,0.4c-0.6,0.8-0.6,1.8,0,2.6c0.3,0.3,0.7,0.5,1.1,0.4
	c0.3,0,0.6-0.1,0.9-0.2c0.2-0.2,0.4-0.4,0.4-0.7h0.6c0,0.4-0.2,0.8-0.6,1.1C48,27.2,47.5,27.3,47,27.3z"/>
<path class="st4" d="M50.8,27.2h-0.7v-0.6h0.7V27.2z"/>
<path class="st4" d="M52.6,18.9h-1v-0.7h-0.5v0.7H50c-0.3,0-0.5-0.1-0.7-0.2S49,18.3,49,18.1s0.1-0.4,0.3-0.5
	c0.3-0.1,0.6-0.2,0.9-0.1h0.6v-0.4h-0.6c-0.4,0-0.8,0.1-1.1,0.3c-0.3,0.2-0.4,0.5-0.4,0.8c0,0.4,0.3,0.8,0.7,0.9
	c-0.3,0-0.5,0.2-0.7,0.4c-0.1,0.2-0.2,0.4-0.2,0.6c0,0.4,0.1,0.7,0.4,1c0.4,0.2,0.8,0.3,1.3,0.3h1.6v-2h1L52.6,18.9z M51.2,20.9H50
	c-0.7,0-1.2-0.2-1.2-0.7c0-0.3,0.1-0.5,0.4-0.6c0.3-0.1,0.6-0.2,0.9-0.2h1.1V20.9z"/>
<path class="st5" d="M190,24.4c0,1.9-1.5,3.4-3.4,3.5H152c-1.9,0-3.4-1.5-3.4-3.5V3.7c0-1.9,1.5-3.4,3.4-3.5h34.5
	c1.9,0,3.4,1.5,3.4,3.5L190,24.4z"/>
<path class="st2" d="M159.9,17.7l-0.4-1.4h-2.4l-0.4,1.4h-2.2l2.4-7.4h2.6l2.4,7.4H159.9z M159.1,14.7l-0.3-1.2
	c-0.1-0.3-0.2-0.6-0.3-1s-0.2-0.7-0.2-0.9c0,0.2-0.1,0.4-0.2,0.8s-0.3,1.2-0.6,2.3L159.1,14.7z"/>
<path class="st2" d="M166,17.7l-1.5-5.3l0,0c0.1,0.9,0.1,1.6,0.1,2.1v3.2h-1.8v-7.3h2.6l1.5,5.2l0,0l1.5-5.2h2.6v7.3h-1.8v-3.2
	c0-0.2,0-0.4,0-0.6s0-0.7,0.1-1.5l0,0l-1.5,5.3H166L166,17.7z"/>
<path class="st2" d="M176.9,17.7h-4.4v-7.3h4.4V12h-2.4v1.1h2.2v1.6h-2.2v1.4h2.4V17.7z"/>
<path class="st2" d="M184.8,17.7h-2.3l-1.4-2.3l-1.4,2.3h-2.2L180,14l-2.3-3.6h2.2l1.3,2.3l1.3-2.3h2.3l-2.3,3.7L184.8,17.7z"/>
<path class="st6" d="M144.8,24.3c0,1.9-1.5,3.4-3.4,3.5h-34.5c-1.9,0-3.4-1.5-3.4-3.5V3.6c0-1.9,1.5-3.4,3.4-3.4h34.5
	c1.9,0,3.4,1.5,3.4,3.5V24.3z"/>
<path class="st5" d="M124.2,7.8c-3.4-3.9-9.4-4.3-13.3-0.9s-4.3,9.4-0.9,13.3s9.4,4.3,13.3,0.9c0.3-0.3,0.6-0.5,0.9-0.9
	C121,16.6,121,11.3,124.2,7.8z"/>
<path class="st5" d="M124.2,7.8c-3.1,3.5-3.1,8.9,0,12.4C127.3,16.6,127.3,11.3,124.2,7.8z"/>
<path class="st7" d="M131.2,4.6c-2.7,0-5.3,1.2-7.1,3.2c-0.4,0.5-0.8,1-1.1,1.5h2.2c0.3,0.6,0.6,1.2,0.8,1.9h-3.8
	c-0.2,0.6-0.3,1.2-0.4,1.9h4.6c0,0.3,0.1,0.6,0.1,0.9c0,0.3,0,0.6,0,0.9h-4.7c0.1,0.6,0.2,1.3,0.4,1.9h3.8c-0.2,0.7-0.5,1.3-0.8,1.9
	H123c0.3,0.5,0.7,1,1.1,1.5c3.4,3.9,9.4,4.3,13.3,0.8c3.9-3.4,4.3-9.4,0.8-13.3C136.5,5.7,133.9,4.5,131.2,4.6L131.2,4.6z"/>
<path class="st8" d="M235.8,24.4c0,1.9-1.5,3.4-3.4,3.5h-34.5c-1.9,0-3.4-1.5-3.4-3.5V3.7c0-1.9,1.5-3.4,3.4-3.5h34.5
	c1.9,0,3.4,1.5,3.4,3.5V24.4z"/>
<path class="st9" d="M201.8,14c0,0.8-0.2,1.5-0.8,2.1c-0.6,0.5-1.4,0.8-2.2,0.7h-1.6v-5.4h1.7c0.8,0,1.5,0.2,2.1,0.7
	C201.6,12.6,201.8,13.3,201.8,14z M200.6,14c0-1.2-0.5-1.8-1.6-1.8h-0.6v3.6h0.5C200.1,15.8,200.6,15.2,200.6,14z"/>
<path class="st9" d="M202.8,16.8v-5.5h1.2v5.4L202.8,16.8z"/>
<path class="st9" d="M208.5,15.3c0,0.4-0.2,0.9-0.5,1.2c-0.4,0.3-1,0.5-1.5,0.4c-0.5,0-1.1-0.1-1.6-0.3v-1.1
	c0.3,0.1,0.6,0.3,0.9,0.4c0.2,0.1,0.5,0.1,0.7,0.1s0.4,0,0.6-0.1c0.1-0.1,0.2-0.3,0.2-0.4c0-0.1,0-0.2-0.1-0.3S207,15,206.9,15
	c-0.2-0.1-0.5-0.3-0.7-0.4c-0.3-0.1-0.5-0.3-0.8-0.4c-0.2-0.1-0.3-0.3-0.4-0.5c-0.1-0.2-0.2-0.4-0.1-0.7c0-0.4,0.2-0.9,0.5-1.1
	c0.4-0.3,0.9-0.4,1.4-0.4c0.3,0,0.5,0,0.8,0.1s0.5,0.2,0.8,0.3l-0.4,0.9c-0.2-0.1-0.5-0.2-0.7-0.3c-0.2,0-0.4-0.1-0.6-0.1
	c-0.2,0-0.4,0-0.5,0.1s-0.2,0.2-0.2,0.4c0,0.1,0,0.2,0.1,0.3s0.1,0.2,0.2,0.2c0.2,0.1,0.5,0.3,0.7,0.4c0.4,0.2,0.7,0.4,1,0.7
	C208.4,14.6,208.5,14.9,208.5,15.3z"/>
<path class="st9" d="M211.8,12.2c-0.4,0-0.8,0.2-1,0.5c-0.3,0.4-0.4,0.9-0.4,1.4c0,1.2,0.5,1.8,1.4,1.8c0.5,0,0.9-0.1,1.4-0.3v1
	c-0.5,0.2-1,0.3-1.5,0.3c-0.7,0-1.4-0.2-1.8-0.7c-0.5-0.6-0.7-1.3-0.6-2.1c0-0.5,0.1-1,0.3-1.5c0.2-0.4,0.5-0.8,0.9-1
	s0.9-0.4,1.4-0.3c0.6,0,1.1,0.1,1.6,0.4l-0.4,0.9c-0.2-0.1-0.4-0.2-0.6-0.3C212.3,12.3,212.1,12.2,211.8,12.2z"/>
<path class="st9" d="M222.5,11.3h1.2l-1.9,5.4h-1.3l-1.9-5.4h1.2l1,3.3c0.1,0.2,0.1,0.4,0.2,0.7s0.1,0.4,0.1,0.5
	c0.1-0.4,0.2-0.8,0.3-1.2L222.5,11.3z"/>
<path class="st9" d="M227.5,16.8h-3.1v-5.5h3.1v0.9h-2v1.2h1.9v0.9h-1.9v1.4h2V16.8z"/>
<path class="st9" d="M229.8,14.7v2.1h-1.2v-5.4h1.6c0.6,0,1.2,0.1,1.6,0.4c0.6,0.5,0.7,1.4,0.3,2.1c-0.2,0.3-0.5,0.5-0.8,0.6
	c0.8,1.2,1.4,2,1.6,2.4h-1.3l-1.3-2.1L229.8,14.7z M229.8,13.8h0.4c0.3,0,0.6,0,0.8-0.2c0.2-0.1,0.3-0.4,0.3-0.6
	c0-0.2-0.1-0.4-0.3-0.6c-0.3-0.1-0.5-0.2-0.8-0.2h-0.3L229.8,13.8L229.8,13.8z"/>
<circle class="st5" cx="216.1" cy="14.1" r="2.7"/>
<path class="st5" d="M235.8,19.2v5.2c0,0.5-0.1,0.9-0.3,1.3c-0.3,0.8-1,1.5-1.8,1.8c-0.4,0.2-0.9,0.3-1.3,0.3h-31L235.8,19.2z"/>
<path class="st10" d="M58.9,7.1V3.6c0-1.9,1.5-3.4,3.5-3.4h33.1c1.9,0,3.4,1.5,3.4,3.5v3.4"/>
<path class="st5" d="M98.9,21.5V25c0,1.9-1.6,2.8-3.4,2.8H62.4c-1.9,0-3.5-0.9-3.5-2.8v-3.5"/>
<path class="st9" d="M70.2,16.6c0.2-0.5,0.4-1,0.6-1.5l2.3-4.7h1.7l-4,7.9H69l-0.7-7.9H70l0.3,4.7c0,0.2,0,0.4,0,0.7
	C70.2,16.1,70.2,16.4,70.2,16.6L70.2,16.6z"/>
<path class="st9" d="M74.2,18.2l1.7-7.9h1.6l-1.7,7.9H74.2z"/>
<path class="st9" d="M82.5,15.9c0,0.7-0.3,1.3-0.8,1.8c-0.6,0.5-1.4,0.7-2.2,0.6c-0.7,0-1.3-0.1-1.9-0.5v-1.5
	c0.6,0.4,1.2,0.6,1.9,0.6c0.3,0,0.7-0.1,0.9-0.2c0.2-0.1,0.3-0.4,0.3-0.6c0-0.1,0-0.3-0.1-0.4c-0.1-0.1-0.1-0.2-0.2-0.3
	c-0.2-0.2-0.4-0.4-0.7-0.6c-0.4-0.3-0.7-0.6-1-1.1c-0.2-0.3-0.3-0.7-0.3-1.1c0-0.4,0.1-0.9,0.3-1.2c0.2-0.4,0.6-0.7,1-0.9
	s0.9-0.3,1.4-0.3c0.7,0,1.5,0.2,2.1,0.5L82.8,12c-0.5-0.2-1-0.4-1.6-0.4c-0.3,0-0.5,0.1-0.7,0.2c-0.2,0.2-0.3,0.4-0.3,0.6
	c0,0.2,0.1,0.4,0.2,0.6c0.2,0.3,0.5,0.5,0.8,0.6c0.4,0.3,0.7,0.6,1,1C82.4,15.1,82.5,15.5,82.5,15.9z"/>
<path class="st9" d="M87.8,16.3h-2.5l-0.9,1.9h-1.7l4.2-7.9h2l0.8,7.9h-1.6L87.8,16.3z M87.8,14.9L87.6,13c0-0.5-0.1-0.9-0.1-1.4
	v-0.2c-0.2,0.4-0.4,0.9-0.6,1.4l-1,2.1H87.8z"/>
<path class="st2" d="M535.6,7.1c-0.8,0.4-1.7,0.6-2.6,0.7c1-0.6,1.7-1.5,2-2.5c-0.9,0.5-1.9,0.9-2.9,1.1c-1.7-1.8-4.6-1.9-6.5-0.2
	c-0.9,0.9-1.4,2.1-1.4,3.3c0,0.3,0,0.7,0.1,1c-3.7-0.2-7.1-1.9-9.4-4.8c-1.2,2.1-0.6,4.8,1.4,6.1c-0.7,0-1.4-0.2-2.1-0.6v0.1
	c0,2.2,1.5,4.1,3.7,4.5c-0.4,0.1-0.8,0.2-1.2,0.2c-0.3,0-0.6,0-0.9-0.1c0.6,1.9,2.3,3.1,4.3,3.2c-1.6,1.3-3.6,2-5.7,2
	c-0.4,0-0.7,0-1.1-0.1c6,3.9,14.1,2.1,18-4c1.3-2.1,2.1-4.5,2-7c0-0.2,0-0.4,0-0.6C534.2,8.8,535,8,535.6,7.1"/>
<path class="st2" d="M553.7,2.8c-6.2,0-11.2,5-11.2,11.2c0,4.4,2.6,8.4,6.7,10.2c0-0.9,0-1.7,0.2-2.6l1.4-6.1
	c-0.2-0.6-0.4-1.2-0.4-1.8c0-1.7,1-2.9,2.2-2.9c0.8,0,1.5,0.6,1.5,1.5c0,0.1,0,0.1,0,0.2c-0.2,1.4-0.6,2.7-1,4
	c-0.2,0.9,0.3,1.9,1.3,2.1c0.2,0,0.3,0.1,0.5,0.1c2.1,0,3.5-2.7,3.5-5.9c0-2.4-1.7-4.3-4.6-4.3c-2.9-0.1-5.4,2.2-5.5,5.1
	c0,0.1,0,0.2,0,0.3c0,0.8,0.2,1.5,0.7,2.2c0.2,0.1,0.2,0.4,0.2,0.6l-0.2,0.9c0,0.2-0.2,0.4-0.4,0.3h-0.1c-1.6-0.6-2.3-2.3-2.3-4.3
	c0-3.2,2.7-7,8-7c4.3,0,7.1,3.1,7.1,6.4c0,4.4-2.4,7.6-6,7.6c-1.1,0-2.1-0.5-2.7-1.4c0,0-0.7,2.6-0.8,3.1c-0.3,0.8-0.6,1.7-1.1,2.4
	c5.9,1.8,12.1-1.6,13.9-7.5c1.8-5.9-1.6-12.1-7.5-13.9C555.9,2.9,554.8,2.8,553.7,2.8"/>
<path class="st2" d="M598.9,12.1h-3.4V8.7h-2.7v3.4h-3.4v2.7h3.4v3.4h2.7v-3.4h3.4V12.1z M586.4,16.1c-0.8-0.6-2.3-1.9-2.3-2.7
	s0.3-1.4,1.7-2.5c1.5-1,2.4-2.7,2.4-4.5c0-2.2-1-4.3-2.8-5h2.7L590,0h-8.6c-3.9,0-7.5,2.9-7.5,6.3s2.7,6.2,6.2,6.3
	c0.1,0,0.3,0,0.4,0h0.8c-0.3,0.5-0.4,1-0.4,1.6c0,0.9,0.5,1.8,1.2,2.4h-1.5c-4.8,0-8.5,3-8.5,6.2s4,5.1,8.8,5.1
	c5.5,0,8.5-3.1,8.5-6.2C589.4,19.3,588.7,17.8,586.4,16.1 M581.8,11.8c-2.2-0.1-4.3-2.5-4.7-5.4s1.1-5.2,3.3-5.1s4.3,2.4,4.7,5.3
	S584,11.9,581.8,11.8 M580.9,26.6c-3.3,0-5.7-2.1-5.7-4.6s3-4.5,6.3-4.5c0.7,0,1.4,0.1,2.1,0.3c1.8,1.3,3.1,2,3.5,3.4
	c0.1,0.3,0.1,0.6,0.1,0.9C587.2,24.6,585.5,26.6,580.9,26.6"/>
<path class="st2" d="M108.4,15.7v-3.8h1.1l0.9,2.7l1-2.7h0.9v3.8h-0.7v-2.9l-0.9,2.6H110l-0.9-2.7v2.9L108.4,15.7z"/>
<path class="st2" d="M114.8,15.4c-0.1,0.1-0.2,0.2-0.3,0.2c-0.1,0-0.2,0.1-0.3,0.1c-0.1,0-0.2,0-0.3,0c-0.4,0-0.8-0.3-0.8-0.8
	c0,0,0,0,0-0.1c0-0.3,0.1-0.5,0.3-0.7c0.3-0.2,0.7-0.3,1.1-0.3h0.2v-0.3c0-0.1,0-0.3-0.2-0.4c-0.1-0.1-0.2-0.1-0.4-0.1
	c-0.3,0-0.6,0.1-0.9,0.3V13c0.3-0.1,0.7-0.2,1-0.2c0.2,0,0.4,0,0.6,0.1s0.3,0.1,0.4,0.3s0.2,0.3,0.2,0.5V15c0,0.1,0,0.3,0.1,0.3
	c0,0,0.1,0,0.1,0.1h0.1v0.4c-0.1,0-0.3,0.1-0.4,0.1s-0.3,0-0.4-0.1C114.8,15.7,114.8,15.6,114.8,15.4L114.8,15.4z M114.8,15v-0.6
	h-0.2c-0.2,0-0.4,0-0.6,0.1c-0.1,0.1-0.2,0.2-0.2,0.3s0,0.2,0.1,0.3s0.2,0.1,0.3,0.1c0.1,0,0.2,0,0.3-0.1
	C114.6,15.2,114.7,15.1,114.8,15L114.8,15z"/>
<path class="st2" d="M116.5,15.6V15c0.3,0.1,0.7,0.2,1,0.2c0.1,0,0.2,0,0.3-0.1c0.1,0,0.1-0.1,0.1-0.2c0-0.1,0-0.2-0.1-0.2
	c-0.1-0.1-0.2-0.1-0.3-0.2l-0.3-0.1c-0.2-0.1-0.4-0.2-0.6-0.4c-0.1-0.1-0.2-0.3-0.2-0.5s0.1-0.5,0.3-0.6c0.3-0.2,0.6-0.3,0.9-0.2
	c0.3,0,0.6,0,0.8,0.1v0.5c-0.2-0.1-0.5-0.1-0.8-0.2c-0.1,0-0.3,0-0.4,0.1s-0.1,0.2,0,0.4l0,0c0.1,0.1,0.2,0.1,0.3,0.1l0.2,0.1
	c0.3,0.1,0.5,0.2,0.7,0.4c0.1,0.1,0.2,0.3,0.2,0.5s-0.1,0.5-0.3,0.6c-0.3,0.2-0.6,0.3-0.9,0.3C117.2,15.8,116.8,15.8,116.5,15.6z"/>
<path class="st2" d="M121,15.7c-0.1,0-0.3,0.1-0.4,0.1c-0.2,0-0.4,0-0.6-0.1c-0.1-0.1-0.2-0.2-0.3-0.3c-0.1-0.2-0.1-0.4-0.1-0.5
	v-1.5h-0.3v-0.5h0.3v-0.5l0.8-0.1v0.6h0.6v0.5h-0.6v1.4c0,0.1,0,0.3,0.1,0.4c0.1,0.1,0.2,0.1,0.3,0.1h0.2V15.7z"/>
<path class="st2" d="M124.1,15.6c-0.3,0.1-0.7,0.2-1,0.2s-0.6-0.1-0.8-0.2c-0.2-0.1-0.4-0.3-0.5-0.5c-0.2-0.5-0.2-1.1,0-1.5
	c0.1-0.2,0.3-0.4,0.5-0.5s0.5-0.2,0.8-0.2s0.6,0.1,0.9,0.4c0.3,0.4,0.4,0.8,0.3,1.3h-1.8c0,0.2,0.1,0.3,0.1,0.5
	c0.1,0.1,0.2,0.2,0.3,0.3c0.1,0.1,0.3,0.1,0.5,0.1c0.3,0,0.6-0.1,0.9-0.2L124.1,15.6z M122.3,14h1c0-0.2,0-0.4-0.1-0.6
	c-0.1-0.1-0.2-0.2-0.3-0.2c-0.1,0-0.3,0.1-0.4,0.2C122.4,13.6,122.3,13.8,122.3,14z"/>
<path class="st2" d="M125,15.7v-2.9h0.8v0.5c0.1-0.2,0.2-0.3,0.4-0.4c0.2-0.1,0.3-0.2,0.5-0.2h0.1v0.7c-0.1,0-0.2-0.1-0.3-0.1
	c-0.1,0-0.3,0-0.4,0.1s-0.2,0.2-0.3,0.4v1.8L125,15.7z"/>
<path class="st2" d="M130.7,15.6c-0.1,0.1-0.3,0.1-0.4,0.1l-0.4,0.1h-0.5c-0.6,0-1.1-0.2-1.5-0.6c-0.3-0.4-0.5-0.9-0.5-1.4
	s0.2-1,0.5-1.4c0.4-0.4,1-0.6,1.6-0.6c0.4,0,0.8,0.1,1.3,0.1v0.6l-0.5-0.1l-0.4-0.1h-0.3c-0.4,0-0.8,0.1-1,0.4
	c-0.2,0.3-0.3,0.7-0.3,1.1c0,0.4,0.1,0.8,0.3,1.1c0.3,0.3,0.6,0.4,1,0.4s0.8-0.1,1.1-0.3L130.7,15.6z"/>
<path class="st2" d="M132.9,15.4c-0.1,0.1-0.2,0.2-0.3,0.2s-0.2,0.1-0.3,0.1s-0.2,0-0.3,0c-0.4,0-0.8-0.3-0.8-0.8c0,0,0,0,0-0.1
	c0-0.3,0.1-0.5,0.3-0.7c0.3-0.2,0.7-0.3,1.1-0.3h0.2v-0.3c0-0.1,0-0.3-0.1-0.4c-0.1-0.1-0.2-0.1-0.4-0.1c-0.3,0-0.6,0.1-0.9,0.3V13
	c0.3-0.1,0.7-0.2,1-0.2c0.2,0,0.4,0,0.6,0.1c0.2,0.1,0.3,0.1,0.4,0.3c0.1,0.2,0.2,0.3,0.1,0.5V15c0,0.1,0,0.3,0.1,0.3
	c0,0,0.1,0,0.1,0.1h0.1v0.4c-0.1,0-0.3,0.1-0.4,0.1c-0.1,0-0.3,0-0.4-0.1C133.1,15.7,133,15.6,132.9,15.4L132.9,15.4z M132.9,15
	v-0.6h-0.2c-0.2,0-0.4,0-0.6,0.1c-0.1,0.1-0.2,0.2-0.2,0.3s0,0.2,0.1,0.3s0.2,0.1,0.3,0.1s0.2,0,0.3-0.1
	C132.8,15.2,132.9,15.1,132.9,15L132.9,15z"/>
<path class="st2" d="M134.8,15.7v-2.9h0.8v0.5c0.1-0.2,0.2-0.3,0.4-0.4c0.2-0.1,0.3-0.2,0.5-0.2h0.1v0.7c-0.1,0-0.2-0.1-0.3-0.1
	s-0.3,0-0.4,0.1c-0.1,0.1-0.2,0.2-0.3,0.4v1.8L134.8,15.7z"/>
<path class="st2" d="M139.1,15.7v-0.5c-0.1,0.2-0.2,0.3-0.4,0.4c-0.2,0.1-0.4,0.2-0.6,0.1c-0.3,0-0.6-0.1-0.8-0.4
	c-0.2-0.3-0.3-0.6-0.3-1s0.1-0.8,0.3-1.1s0.5-0.5,0.9-0.4c0.1,0,0.2,0,0.3,0s0.2,0.1,0.3,0.1c0.1,0.1,0.2,0.1,0.3,0.2v-1.5h0.8v4.1
	C139.9,15.7,139.1,15.7,139.1,15.7z M139.1,13.6c-0.1-0.1-0.2-0.2-0.3-0.3c-0.1,0-0.2-0.1-0.3-0.1c-0.2,0-0.4,0.1-0.5,0.3
	s-0.2,0.5-0.1,0.7c0,0.2,0,0.4,0.1,0.6c0.1,0.2,0.2,0.2,0.4,0.2c0.1,0,0.2,0,0.3-0.1s0.2-0.2,0.3-0.3L139.1,13.6z"/>
<polygon class="st5" points="70,12.2 66.1,9.7 70,10 "/>
<path class="st2" d="M624.1,3.7h-12.3c-2.7,0-4.9,2.2-4.9,4.9v12.3c0,2.7,2.2,4.9,4.9,4.9h12.3c2.7,0,4.9-2.2,4.9-4.9V8.6
	C629,5.9,626.8,3.7,624.1,3.7z M611.5,23.4c-1.1,0-1.9-0.9-1.9-1.9s0.9-1.9,1.9-1.9s1.9,0.9,1.9,1.9l0,0
	C613.4,22.6,612.5,23.4,611.5,23.4z M616.6,23.4c0-6.1-4.4-7-7-7v-3c6.2,0,10,3.8,10,10H616.6z M622.6,23.4
	c0-11.6-9.2-12.8-13.1-12.8v-3c9.9,0,16.1,6.1,16.1,15.8H622.6z"/>
<path class="st4" d="M767.9,18.9c4,0,7.3-4,7.3-8.9s-3.3-8.9-7.3-8.9s-7.3,4-7.3,8.9S763.9,18.9,767.9,18.9z M767.9,2.6
	c3.2,0,5.8,3.3,5.8,7.4s-2.6,7.4-5.8,7.4s-5.8-3.3-5.8-7.4S764.7,2.6,767.9,2.6z"/>
<path class="st4" d="M773.2,17.4v1.5c4.4,0,6.8,4.6,6.8,6.5c0,1-0.7,1.1-1,1.1h-22.3c-0.9,0-1.1-0.1-1.1-1.1c0-2.6,3-6.5,7.2-6.5
	v-1.5c-4.8,0-8.7,4.4-8.7,8c-0.2,1.3,0.7,2.5,2,2.6c0.2,0,0.4,0,0.7,0h22.4c1.4,0,2.5-1.1,2.5-2.5c0-0.1,0-0.1,0-0.2
	C781.5,22.6,778.4,17.4,773.2,17.4z"/>
<path class="st4" d="M720.5,18.9c4,0,7.3-4,7.3-8.9s-3.3-8.9-7.3-8.9s-7.4,4-7.4,8.9S716.5,18.9,720.5,18.9z M720.5,2.6
	c3.2,0,5.8,3.3,5.8,7.4s-2.6,7.4-5.8,7.4s-5.8-3.3-5.8-7.4S717.3,2.6,720.5,2.6z"/>
<path class="st4" d="M732.8,14c2.7,0,5-2.7,5-6s-2.2-6-5-6s-5,2.7-5,6S730,14,732.8,14z M732.8,3.6c1.9,0,3.5,2,3.5,4.4
	s-1.5,4.4-3.5,4.4s-3.5-2-3.5-4.4S730.9,3.5,732.8,3.6L732.8,3.6z"/>
<path class="st4" d="M741,13.4c-4,0-7.3,3.3-7.3,7.3S737,28,741,28s7.3-3.3,7.3-7.3l0,0C748.3,16.7,745,13.4,741,13.4z M741,26.5
	c-3.2,0-5.8-2.6-5.8-5.8s2.6-5.8,5.8-5.8s5.8,2.6,5.8,5.8l0,0C746.8,23.9,744.2,26.4,741,26.5L741,26.5z"/>
<polygon class="st4" points="741.7,17.7 740.2,17.7 740.2,19.9 738,19.9 738,21.4 740.2,21.4 740.2,23.6 741.7,23.6 741.7,21.4 
	744,21.4 744,19.9 741.7,19.9 "/>
<path class="st4" d="M725.8,17.4v1.5c4.4,0,6.8,4.6,6.8,6.5c0,1-0.7,1.1-1,1.1h-22.3c-0.9,0-1.1-0.1-1.1-1.1c0-2.6,3-6.5,7.2-6.5
	v-1.5c-4.8,0-8.7,4.4-8.7,8c-0.2,1.3,0.7,2.5,2,2.6c0.2,0,0.4,0,0.7,0h22.4c1.4,0,2.5-1.1,2.5-2.5c0-0.1,0-0.1,0-0.2
	C734.1,22.6,730.9,17.4,725.8,17.4z"/>
<path class="st4" d="M700.4,5.5c-0.3-0.4-0.7-0.6-1.1-0.6h-18.9v1.5h18.7l-1,3h-16.2v1.5h15.7l-0.9,2.7h-13.8V15h13.2l-0.8,2.4
	h-14.1l-3.8-14.3c-0.1-0.5-0.5-0.9-1-1l-5.8-1.4l-0.4,1.5l5.7,1.4l3.9,14.3c0.1,0.2,0.1,0.3,0.3,0.5c-0.9,0.7-1.3,1.8-1.2,2.9
	c0.2,0.9,0.9,1.5,1.8,1.6c-1.2,1.3-1,3.3,0.2,4.4c1.3,1.2,3.3,1,4.4-0.2c1.1-1.2,1.1-3,0-4.2h5.3c-1.2,1.3-1,3.3,0.3,4.4
	c1.3,1.2,3.3,1,4.4-0.3c1.1-1.2,1.1-3,0-4.2h1.1v-1.5H681c-0.5,0-0.6-0.3-0.6-0.4c-0.1-0.5,0.4-1.5,1.7-2.1h13.4
	c0.6,0,1.1-0.4,1.3-0.9l3.9-11.2C700.7,6.3,700.6,5.8,700.4,5.5z M692.9,26.5c-0.9,0-1.6-0.7-1.6-1.6s0.7-1.6,1.6-1.6
	c0.9,0,1.6,0.7,1.6,1.6C694.6,25.7,693.8,26.5,692.9,26.5L692.9,26.5L692.9,26.5z M682.9,26.5c-0.9,0-1.6-0.7-1.6-1.6
	s0.7-1.6,1.6-1.6c0.9,0,1.6,0.7,1.6,1.6C684.6,25.7,683.8,26.5,682.9,26.5L682.9,26.5L682.9,26.5z"/>
<path class="st4" d="M657.2,26.2c-7-1.5-16.7-10-18.1-18.2c-0.1-1.2,0.2-2.5,1-3.5c0.7-0.9,1.6-1.8,2.5-2.6c0.9-0.9,2.4-0.9,3.3,0
	l3.1,3.2l0,0c0.9,0.9,0.9,2.4,0,3.3l-1.3,1.3c-0.2,0.2-0.2,0.5,0.2,1.4c0.9,2,4.1,5.3,6.4,6.4c0.9,0.5,1.2,0.2,1.3,0.1l1.3-1.3
	c0.4-0.4,1-0.7,1.6-0.7s1.2,0.3,1.6,0.7l3.3,3.3c0.9,0.9,0.9,2.4,0,3.3l-2.1,2.1c-0.8,0.9-1.9,1.4-3.1,1.5
	C657.9,26.5,657.6,26.5,657.2,26.2z M658.6,17.2c-0.2,0-0.4,0.1-0.5,0l-1.3,1.3c-0.8,0.8-1.8,0.8-3.1,0.2c-2.4-1.2-6-4.5-7.1-7.1
	c-0.3-0.7-0.8-2,0.2-3l1.3-1.3l0,0c0.3-0.3,0.3-0.8,0-1.1l-3.2-3.1l0,0c-0.4-0.3-0.9-0.3-1.2,0c-0.8,0.7-1.6,1.5-2.3,2.4
	c-0.5,0.7-0.7,1.5-0.7,2.4c1.3,7.5,10.5,15.6,17,17c0.7,0.1,1.5,0.2,2.7-1l2.1-2.1c0.3-0.3,0.3-0.8,0-1.1l-3.3-3.3
	C659,17.3,658.8,17.2,658.6,17.2L658.6,17.2z"/>
<path class="st4" d="M807.3,17.4l-1.5,1.5c-0.7,0.7-1.3,0.7-2.5,0c-2.5-1.5-6.4-5-7.5-7.5c-0.7-1.6-0.7-1.8,0-2.5l1.5-1.5
	c0.7-0.7,0.7-1.8,0-2.5l-3.5-3.5c-0.7-0.7-1.8-0.7-2.5,0c-1,0.8-1.9,1.8-2.7,2.8c-0.7,0.9-1.1,2.1-1,3.3c1.5,8.5,11.7,18,19.7,19.7
	c1.1,0.3,2.2,0.2,3.8-1.3l2.4-2.4c0.7-0.7,0.7-1.8,0-2.5l-3.7-3.7C809.1,16.6,808,16.7,807.3,17.4z"/>
</svg>
